<svg width="200" height="200" viewBox="0 0 200 200" fill="none" xmlns="http://www.w3.org/2000/svg">
<path d="M99.2207 67.3203C99.5084 66.3752 100.846 66.3752 101.134 67.3203L105.938 83.1025C107.587 88.5234 111.83 92.7661 117.251 94.416L133.034 99.2197C133.979 99.5074 133.979 100.846 133.034 101.134L117.251 105.938C111.83 107.587 107.587 111.83 105.938 117.251L101.134 133.033C100.846 133.978 99.5084 133.978 99.2207 133.033L94.417 117.251C92.7671 111.83 88.5243 107.588 83.1035 105.938L67.3203 101.134C66.3752 100.846 66.3752 99.5074 67.3203 99.2197L83.1035 94.416C88.5243 92.766 92.7671 88.5233 94.417 83.1025L99.2207 67.3203Z" fill="#242424"/>
<path d="M159.677 33.1768C163.819 33.1768 167.177 36.5346 167.177 40.6768C167.177 44.8189 163.819 48.1768 159.677 48.1768C155.535 48.1766 152.177 44.8188 152.177 40.6768C152.177 36.5347 155.535 33.1769 159.677 33.1768Z" fill="#242424"/>
<path fill-rule="evenodd" clip-rule="evenodd" d="M97.6006 0C133.444 0 151.365 0.000101089 165.056 6.97559C177.098 13.1114 186.889 22.9022 193.024 34.9443C200 48.6347 200 66.557 200 102.4V136C200 158.402 200 169.604 195.641 178.16C191.806 185.686 185.687 191.806 178.16 195.641C169.604 200 158.402 200 136 200H102.4C66.5572 200 48.6356 200 34.9453 193.024C22.9029 186.889 13.1115 177.098 6.97559 165.056C6.05583e-05 151.365 1.32547e-10 133.444 0 97.6006V64C0 41.5981 0.000710964 30.3973 4.36035 21.8408C8.19529 14.3143 14.3143 8.19431 21.8408 4.35938C30.3972 -0.000230789 41.5984 1.77519e-10 64 0H97.6006ZM166.092 26.1553C150.833 12.2757 127.521 12.2757 112.262 26.1553C111.562 26.792 110.77 27.5833 109.188 29.165L29.1582 109.195C27.5764 110.777 26.7852 111.569 26.1484 112.269C12.2689 127.528 12.2689 150.839 26.1484 166.099C26.7853 166.799 27.5762 167.59 29.1582 169.172C30.8589 170.873 31.7093 171.724 32.4619 172.408C48.8656 187.328 73.9255 187.329 90.3291 172.408C91.0817 171.724 91.9321 170.873 93.6328 169.172L169.165 93.6396C170.866 91.9389 171.717 91.0886 172.401 90.3359C187.322 73.9324 187.322 48.8724 172.401 32.4688C171.717 31.7161 170.866 30.8658 169.165 29.165C167.583 27.583 166.792 26.7921 166.092 26.1553Z" fill="#242424"/>
</svg>
